<?xml version="1.0" encoding="utf-8"?>
<!-- Generator: Adobe Illustrator 24.2.0, SVG Export Plug-In . SVG Version: 6.00 Build 0)  -->
<svg version="1.1" id="Logo" 
	xmlns="http://www.w3.org/2000/svg" 
	xmlns:xlink="http://www.w3.org/1999/xlink" x="0px" y="0px" viewBox="0 0 124 124" style="enable-background:new 0 0 124 124;" xml:space="preserve">
	<style type="text/css">
	.st0{fill:#000000;}
	</style>
	<g>
		<path class="st0" d="M62,11.17c16.55,0,18.52,0.06,25.05,0.36c6.04,0.28,9.33,1.29,11.51,2.13c2.89,1.12,4.96,2.47,7.13,4.64
		c2.17,2.17,3.51,4.23,4.64,7.13c0.85,2.18,1.86,5.47,2.13,11.51c0.3,6.54,0.36,8.5,0.36,25.05s-0.06,18.52-0.36,25.05
		c-0.28,6.04-1.29,9.33-2.13,11.51c-1.12,2.89-2.47,4.96-4.64,7.13c-2.17,2.17-4.23,3.51-7.13,4.64c-2.18,0.85-5.47,1.86-11.51,2.13
		c-6.54,0.3-8.5,0.36-25.05,0.36s-18.52-0.06-25.05-0.36c-6.04-0.28-9.33-1.29-11.51-2.13c-2.89-1.12-4.96-2.47-7.13-4.64
		c-2.17-2.17-3.51-4.23-4.64-7.13c-0.85-2.18-1.86-5.47-2.13-11.51c-0.3-6.54-0.36-8.5-0.36-25.05s0.06-18.52,0.36-25.05
		c0.28-6.04,1.29-9.33,2.13-11.51c1.12-2.89,2.47-4.96,4.64-7.13c2.17-2.17,4.23-3.51,7.13-4.64c2.18-0.85,5.47-1.86,11.51-2.13
		C43.48,11.23,45.45,11.17,62,11.17 M62,0C45.16,0,43.05,0.07,36.44,0.37c-6.6,0.3-11.11,1.35-15.05,2.88
		c-4.08,1.58-7.53,3.7-10.98,7.15c-3.45,3.45-5.57,6.9-7.15,10.98c-1.53,3.94-2.58,8.45-2.88,15.05C0.07,43.05,0,45.16,0,62
		c0,16.84,0.07,18.95,0.37,25.56c0.3,6.6,1.35,11.11,2.88,15.05c1.58,4.08,3.7,7.53,7.15,10.98c3.45,3.45,6.9,5.57,10.98,7.15
		c3.94,1.53,8.45,2.58,15.05,2.88c6.61,0.3,8.72,0.37,25.56,0.37s18.95-0.07,25.56-0.37c6.6-0.3,11.11-1.35,15.05-2.88
		c4.08-1.58,7.53-3.7,10.98-7.15c3.45-3.45,5.57-6.9,7.15-10.98c1.53-3.94,2.58-8.45,2.88-15.05c0.3-6.61,0.37-8.72,0.37-25.56
		s-0.07-18.95-0.37-25.56c-0.3-6.6-1.35-11.11-2.88-15.05c-1.58-4.08-3.7-7.53-7.15-10.98c-3.45-3.45-6.9-5.57-10.98-7.15
		c-3.94-1.53-8.45-2.58-15.05-2.88C80.95,0.07,78.84,0,62,0L62,0z"/>
		<path class="st0" d="M62,30.16c-17.58,0-31.84,14.25-31.84,31.84S44.42,93.84,62,93.84S93.84,79.58,93.84,62S79.58,30.16,62,30.16z
		 M62,82.67c-11.41,0-20.67-9.25-20.67-20.67c0-11.41,9.25-20.67,20.67-20.67c11.41,0,20.67,9.25,20.67,20.67
		C82.67,73.41,73.41,82.67,62,82.67z"/>
		<circle class="st0" cx="95.1" cy="28.9" r="7.44"/>
	</g>
</svg>
