<?xml version="1.0" encoding="utf-8"?>
<!-- Generator: Adobe Illustrator 24.1.1, SVG Export Plug-In . SVG Version: 6.00 Build 0)  -->
<svg version="1.1" id="Layer_1" xmlns="http://www.w3.org/2000/svg" xmlns:xlink="http://www.w3.org/1999/xlink" x="0px" y="0px"
	 viewBox="0 0 59 24" style="enable-background:new 0 0 59 24;" xml:space="preserve">
<style type="text/css">
	.st0{fill:#D3F32C;}
	.st1{fill:none;stroke:#D3F32C;stroke-width:2;stroke-linecap:round;}
</style>
<path class="st0" d="M15,16h6.3v-1.5h-4.6V6.1H15V16z M23.1,16h1.7V6.1h-1.7V16z M33.6,6.1l-2.6,7.5h0l-2.6-7.5h-1.8l3.7,9.9h1.5
	l3.7-9.9H33.6z M36.9,16h6.5v-1.5h-4.9v-2.7h3.7v-1.5h-3.7V7.6h4.6V6.1h-6.3V16z"/>
<path class="st1" d="M11,5c-2.4,1.1-4,3.5-4,6.3c0,2.8,1.6,5.2,4,6.3"/>
<path class="st1" d="M48,17.6c2.4-1.1,4-3.5,4-6.3c0-2.8-1.6-5.2-4-6.3"/>
<path class="st1" d="M52,21c3.5-1.7,6-5.3,6-9.5S55.5,3.7,52,2"/>
<path class="st1" d="M7,2c-3.5,1.7-6,5.3-6,9.5c0,4.2,2.5,7.8,6,9.5"/>
<polyline class="st1" points="15,19.7 27.6,19.7 43.5,19.7 "/>
</svg>
