<?xml version="1.0" encoding="utf-8"?>
<!-- Generator: Adobe Illustrator 24.2.0, SVG Export Plug-In . SVG Version: 6.00 Build 0)  -->
<svg version="1.1" id="White" 
	xmlns="http://www.w3.org/2000/svg" 
	xmlns:xlink="http://www.w3.org/1999/xlink" x="0px" y="0px" viewBox="0 0 124 124" style="enable-background:new 0 0 124 124;" xml:space="preserve">
	<style type="text/css">
	.st0{fill:#000000;}
	</style>
	<path class="st0" d="M124,62c0,34.25-27.75,62-62,62S0,96.25,0,62S27.75,0,62,0S124,27.75,124,62z M50.65,94.71
	c27.5,0,42.53-22.79,42.53-42.53c0-0.65,0-1.3-0.03-1.92c2.91-2.11,5.46-4.74,7.47-7.75c-2.67,1.18-5.55,1.98-8.59,2.36
	c3.1-1.86,5.46-4.77,6.57-8.28c-2.88,1.7-6.08,2.94-9.49,3.63c-2.73-2.91-6.6-4.71-10.91-4.71c-8.25,0-14.94,6.7-14.94,14.94
	c0,1.18,0.12,2.33,0.4,3.41c-12.43-0.62-23.44-6.57-30.81-15.62c-1.27,2.2-2.01,4.77-2.01,7.5c0,5.18,2.63,9.76,6.67,12.43
	c-2.45-0.06-4.74-0.74-6.76-1.86c0,0.06,0,0.12,0,0.19c0,7.25,5.15,13.27,12,14.66c-1.24,0.34-2.57,0.53-3.94,0.53
	c-0.96,0-1.89-0.09-2.82-0.28c1.89,5.95,7.41,10.26,13.95,10.39c-5.12,4-11.56,6.39-18.57,6.39c-1.21,0-2.39-0.06-3.57-0.22
	C34.35,92.22,42.22,94.71,50.65,94.71"/>
</svg>
