<?xml version="1.0" encoding="utf-8"?>
<!-- Generator: Adobe Illustrator 24.1.3, SVG Export Plug-In . SVG Version: 6.00 Build 0)  -->
<svg version="1.1" 
	xmlns="http://www.w3.org/2000/svg" 
	xmlns:xlink="http://www.w3.org/1999/xlink" x="0px" y="0px" viewBox="0 0 500 500" style="enable-background:new 0 0 500 500;" xml:space="preserve">
	<style type="text/css">
	.st0{fill:#FFFFFF;}
	.st1{fill:#FFFFFF;}
	.st2{fill:#FFFFFF;}
	.st3{fill:#FFFFFF;}
	</style>
	<g id="Designs">
		<g>
			<path class="st3" d="M250,28.99C127.94,28.99,28.99,127.94,28.99,250S127.94,471.01,250,471.01
			c122.06,0,221.01-98.95,221.01-221.01S372.06,28.99,250,28.99z M156.91,229.18l52.71-65.62v-0.31H160.4v-20h81.62v16.2
			l-53.53,65.93v0.31h52.71v20h-84.29V229.18z M227.69,287.97c-2.67-0.21-5.02-0.31-7.08-0.31c-5.81,0-10.85,1.3-15.12,3.9
			c-4.27,2.6-7.49,6.1-9.64,10.51c-2.15,4.41-3.23,9.42-3.23,15.02v48.6h-23.48V263.25h23.48v15.38h0.31
			c4.03-5.47,8.8-9.66,14.3-12.56c5.5-2.9,11.37-4.36,17.59-4.36c1.37,0,2.32,0.03,2.87,0.1V287.97z M291.11,371.15
			c-30.09,0-54.48-24.39-54.48-54.48c0-30.09,24.39-54.48,54.48-54.48c30.09,0,54.48,24.39,54.48,54.48
			C345.6,346.76,321.2,371.15,291.11,371.15z M351.2,202.62h-74.65c1.5,7.25,4.87,12.95,10.1,17.12c5.23,4.17,11.6,6.25,19.12,6.25
			c10.6,0,19.11-4.03,25.53-12.1l16.41,14.05c-4.65,5.95-10.61,10.66-17.89,14.15c-7.28,3.49-15.71,5.23-25.28,5.23
			c-9.91,0-18.83-2.15-26.76-6.46s-14.18-10.51-18.76-18.61c-4.58-8.1-6.87-17.38-6.87-27.84c0-7.72,1.26-14.87,3.79-21.43
			s6.02-12.13,10.46-16.71s9.74-8.15,15.89-10.71c6.15-2.56,12.75-3.85,19.79-3.85c9.91,0,18.66,2.22,26.25,6.67
			s13.4,10.56,17.43,18.35s6.05,16.65,6.05,26.56C351.81,197.05,351.61,200.16,351.2,202.62z"/>
			<path class="st3" d="M315.05,165.66c-3.45-1.74-7.37-2.62-11.74-2.62c-6.49,0-12.1,1.79-16.82,5.38
			c-4.72,3.59-7.9,8.67-9.54,15.23h51.27c-1.03-4.17-2.62-7.78-4.77-10.82C321.31,169.79,318.5,167.4,315.05,165.66z"/>
		</g>
	</g>
	<g id="annotations">
	</g>
</svg>
