<?xml version="1.0" encoding="utf-8"?>
<!-- Generator: Adobe Illustrator 24.1.3, SVG Export Plug-In . SVG Version: 6.00 Build 0)  -->
<svg version="1.1" 
	xmlns="http://www.w3.org/2000/svg" 
	xmlns:xlink="http://www.w3.org/1999/xlink" x="0px" y="0px" viewBox="0 0 500 500" style="enable-background:new 0 0 500 500;" xml:space="preserve">
	<style type="text/css">
	.st0{fill:#FFFFFF;}
	.st1{fill:#FFFFFF;}
	.st2{fill:#FFFFFF;}
	.st3{fill:#FFFFFF;}
	</style>
	<g id="Designs">
	</g>
	<g id="annotations">
		<g>
			<polygon class="st3" points="94.52,172.89 94.27,172.89 77.94,118.08 62.04,118.08 45.96,172.8 45.63,172.8 27.64,118.08 
			8.31,118.08 36.88,201.29 54.12,201.29 69.7,148.9 70.03,148.9 85.61,201.29 103.26,201.29 131.83,118.08 112.51,118.08 		"/>
			<path class="st3" d="M140.63,190.42c3.75,3.8,8.37,6.79,13.87,8.95c5.5,2.16,11.46,3.25,17.91,3.25c8.39,0,15.89-1.79,22.53-5.37
			c6.64-3.58,11.81-8.63,15.54-15.16c3.72-6.52,5.58-13.95,5.58-22.28c0-8.39-1.86-15.85-5.58-22.41
			c-3.72-6.55-8.88-11.62-15.49-15.2c-6.61-3.58-14.13-5.37-22.57-5.37c-8.6,0-16.25,1.87-22.94,5.62
			c-6.69,3.75-11.83,8.87-15.41,15.37c-3.58,6.5-5.37,13.83-5.37,21.99c0,6.05,1.05,11.72,3.16,16.99
			C133.96,182.08,136.89,186.62,140.63,190.42z M154.83,141.48c4.5-4.89,10.36-7.33,17.57-7.33c6.94,0,12.72,2.39,17.32,7.16
			c4.61,4.78,6.92,10.94,6.92,18.49c0,7.38-2.33,13.48-7,18.28c-4.66,4.8-10.41,7.2-17.24,7.2c-7.05,0-12.87-2.44-17.45-7.33
			c-4.58-4.89-6.87-10.94-6.87-18.16C148.09,152.48,150.34,146.37,154.83,141.48z"/>
			<path class="st3" d="M270.98,138.15v-21.24c-0.44-0.05-1.22-0.08-2.33-0.08c-5.05,0-9.82,1.18-14.29,3.54
			c-4.47,2.36-8.34,5.76-11.62,10.2h-0.25v-12.49h-19.07v83.21h19.07v-39.48c0-4.55,0.87-8.62,2.62-12.2
			c1.75-3.58,4.36-6.43,7.83-8.54c3.47-2.11,7.56-3.17,12.28-3.17C266.9,137.9,268.82,137.99,270.98,138.15z"/>
			<rect x="281.44" y="85.79" class="st3" width="19.07" height="115.5"/>
			<path class="st3" d="M376.84,190.13h0.33v11.16h18.24V85.79h-19.07v42.29h-0.42c-6.33-7.5-15.1-11.25-26.32-11.25
			c-5.66,0-10.97,1.08-15.91,3.25c-4.94,2.16-9.19,5.14-12.75,8.91c-3.55,3.78-6.36,8.36-8.41,13.74
			c-2.06,5.39-3.08,11.16-3.08,17.32c0,5.05,0.65,9.81,1.96,14.28c1.31,4.47,3.16,8.41,5.58,11.83c2.42,3.42,5.28,6.37,8.58,8.87
			c3.3,2.5,7.02,4.39,11.16,5.66c4.14,1.28,8.48,1.92,13.03,1.92C361.49,202.62,370.51,198.46,376.84,190.13z M335.53,178.26
			c-4.44-4.69-6.66-10.73-6.66-18.12c0-3.89,0.62-7.48,1.87-10.79c1.25-3.3,2.96-6.05,5.12-8.25c2.16-2.19,4.7-3.9,7.62-5.12
			s6.04-1.83,9.37-1.83c7.11,0,12.92,2.47,17.45,7.41c4.52,4.94,6.79,11.13,6.79,18.57c0,7.44-2.33,13.49-7,18.16
			c-4.66,4.66-10.44,7-17.32,7C345.72,185.3,339.97,182.95,335.53,178.26z"/>
			<polygon class="st3" points="192.34,253.68 207.92,306.07 225.58,306.07 254.14,222.86 234.82,222.86 216.83,277.66 
			216.58,277.66 200.26,222.86 184.35,222.86 168.27,277.58 167.94,277.58 149.95,222.86 130.62,222.86 159.19,306.07 
			176.43,306.07 192.01,253.68 		"/>
			<path class="st3" d="M316.95,232.85h-0.33c-6.33-7.5-14.91-11.24-25.74-11.24c-5.66,0-10.97,1.08-15.91,3.25
			c-4.94,2.16-9.19,5.14-12.74,8.91c-3.55,3.78-6.36,8.36-8.41,13.74c-2.05,5.39-3.08,11.16-3.08,17.32c0,5.05,0.65,9.81,1.96,14.28
			c1.3,4.47,3.16,8.41,5.58,11.83c2.42,3.42,5.27,6.37,8.58,8.87s7.03,4.39,11.16,5.66c4.14,1.28,8.48,1.92,13.03,1.92
			c11.33,0,20.16-4.17,26.49-12.49h0.25v11.16h18.24v-83.21h-19.07V232.85z M310.83,283.04c-4.58,4.69-10.17,7.04-16.78,7.04
			c-7.05,0-12.8-2.35-17.24-7.04c-4.44-4.69-6.66-10.73-6.66-18.12c0-3.89,0.62-7.48,1.87-10.79c1.25-3.3,2.95-6.05,5.12-8.25
			c2.17-2.19,4.71-3.9,7.62-5.12c2.91-1.22,6.04-1.83,9.37-1.83c6.77,0,12.4,2.48,16.87,7.45c4.47,4.97,6.71,11.15,6.71,18.53
			C317.7,272.31,315.41,278.34,310.83,283.04z"/>
			<path class="st3" d="M367.99,266.59c0-4.55,0.87-8.62,2.62-12.2c1.75-3.58,4.36-6.43,7.83-8.54c3.47-2.11,7.56-3.17,12.28-3.17
			c1.67,0,3.58,0.08,5.75,0.25v-21.24c-0.44-0.05-1.22-0.08-2.33-0.08c-5.05,0-9.82,1.18-14.29,3.54
			c-4.47,2.36-8.34,5.76-11.62,10.2h-0.25v-12.49h-19.07v83.21h19.07V266.59z"/>
			<polygon class="st3" points="189.47,343.88 229.45,343.88 229.45,344.13 186.64,397.44 186.64,410.84 255.11,410.84 255.11,394.6 
			212.29,394.6 212.29,394.35 255.77,340.8 255.77,327.63 189.47,327.63 		"/>
			<path class="st3" d="M320.69,331.8c-6.16-3.61-13.27-5.41-21.32-5.41c-5.72,0-11.08,1.04-16.08,3.12c-5,2.08-9.3,4.98-12.91,8.7
			c-3.61,3.72-6.44,8.25-8.5,13.58s-3.08,11.13-3.08,17.41c0,8.5,1.86,16.03,5.58,22.62c3.72,6.58,8.8,11.62,15.24,15.12
			c6.44,3.5,13.69,5.25,21.74,5.25c7.77,0,14.62-1.42,20.53-4.25c5.91-2.83,10.76-6.66,14.53-11.49l-13.33-11.41
			c-5.22,6.55-12.13,9.83-20.74,9.83c-6.11,0-11.29-1.69-15.53-5.08c-4.25-3.39-6.98-8.02-8.21-13.91h60.64
			c0.33-2,0.5-4.52,0.5-7.58c0-8.05-1.64-15.24-4.92-21.57C331.58,340.38,326.86,335.41,320.69,331.8z M278.96,360.45
			c1.33-5.33,3.91-9.45,7.75-12.37c3.83-2.91,8.38-4.37,13.66-4.37c3.55,0,6.73,0.71,9.54,2.12c2.8,1.42,5.08,3.36,6.83,5.83
			c1.75,2.47,3.04,5.4,3.87,8.79H278.96z"/>
			<path class="st3" d="M379.86,329.93c-4.47,2.36-8.34,5.76-11.62,10.2h-0.25v-12.5h-19.07v83.21h19.07v-39.48
			c0-4.55,0.87-8.62,2.62-12.2c1.75-3.58,4.36-6.43,7.83-8.54c3.47-2.11,7.57-3.16,12.29-3.16c1.66,0,3.58,0.08,5.75,0.25v-21.24
			c-0.44-0.05-1.22-0.08-2.33-0.08C389.1,326.39,384.33,327.57,379.86,329.93z"/>
			<circle class="st3" cx="445.39" cy="367.91" r="46.3"/>
		</g>
	</g>
</svg>
